# xmcd
#
# Track frame offsets:
#	150
#	14114
#	30358
#	47343
#	65967
#	84753
#	102237
#	117731
#	150182
#	168636
#	185905
#	201109
#	218311
#	234466
#
# Disc length: 3348 seconds
#
# Revision: 0
# Processed by: cddbd v1.5.2PL0 Copyright (c) Steve Scherf et al.
# Submitted via: dBpowerAMP V4.0
#
DISCID=b60d120e
DTITLE=VARIOS ARTISTAS - HITS COLLECTION 90S  DISC 1
DYEAR=1999
DGENRE=Electronic
TTITLE0=SATURDAY NIGHT-WHIGFIELD
TTITLE1=PUMP UP THE JAM-TECHNOTRONIC
TTITLE2=BABY BABY-CORONA
TTITLE3=TWILIGHT ZONE- 2U UNLIMITED
TTITLE4=CELEBRATE THE LOVE-ZHI GO
TTITLE5=PRAY-DJ BOBO
TTITLE6=MY RADIO- JK
TTITLE7=REAL VIBRATION-EXPRESS OF SOUND
TTITLE8=ALL ABOAR-AVA and STONE
TTITLE9=UNDERSTAND ME-CAROL BAILEY
TTITLE10=FIRST IN LINE
TTITLE11=GIRLS JUST WANNA HAVE FUN-HAPPY NATION
TTITLE12=CAMELS-SANTOS
TTITLE13=ATHEM-FLOORFILLA
EXTD=
EXTT0=
EXTT1=
EXTT2=
EXTT3=
EXTT4=
EXTT5=
EXTT6=
EXTT7=
EXTT8=
EXTT9=
EXTT10=
EXTT11=
EXTT12=
EXTT13=
PLAYORDER=
